<svg width="96" height="127" viewBox="0 0 96 127" fill="none" xmlns="http://www.w3.org/2000/svg">
<path d="M48.8026 96.8528C55.1667 101.833 57.4761 109.553 61.916 115.959C63.9291 119.28 66.2432 122.539 68.5907 125.766C68.5907 124.93 68.5355 124.104 68.4816 123.318C63.013 115.875 58.2276 108.095 57.8234 98.7731C68.358 96.2514 58.218 70.1858 61.6275 61.6523C64.8833 44.769 78.2712 27.2248 69.1902 10.0461C68.6639 8.34307 64.7185 -2.77188 63.2666 0.823903C78.0349 45.8094 42.562 35.4415 57.2242 104.413C42.7839 81.4017 45.5785 52.6691 56.5775 28.8879C61.8289 29.2598 63.4917 20.8731 57.3701 21.1684C52.7131 20.5701 49.7362 27.5782 54.9781 28.8635C45.1695 50.6371 41.6632 76.0661 52.2723 98.1916C42.2862 90.2503 40.1591 76.7974 39.8848 64.9773C40.6615 58.0917 43.3894 51.4909 42.9186 44.4738C42.7173 35.2441 41.1353 23.7374 49.4841 17.2023C50.2259 16.6499 49.6029 15.4933 48.7327 15.9538C36.369 21.8938 38.8101 35.7031 37.8876 46.7092C37.0253 53.05 35.3244 59.2669 34.8631 65.6613C34.8013 73.2078 36.5513 101.071 48.8026 96.8528ZM67.2181 39.9858C51.5256 72.5498 66.7016 83.6677 58.7888 97.1879C59.2405 83.5882 56.1573 69.6656 59.9267 56.3122C62.9384 45.8233 69.596 36.312 70.6739 25.335C70.1646 30.3399 69.0033 35.2629 67.2181 39.9875V39.9858ZM67.2181 9.56102C74.0784 24.9326 64.0068 40.1954 58.9076 54.5128C54.696 67.8019 57.5048 81.7689 57.3368 95.3671C46.9671 42.4861 74.1532 44.7629 67.2231 9.56251L67.2181 9.56102ZM43.876 21.8203C43.5971 22.3727 43.3386 22.9342 43.1104 23.5034C43.0308 23.4044 42.9237 23.3295 42.8014 23.2876C43.139 22.7873 43.4973 22.2976 43.8793 21.8218L43.876 21.8203ZM39.0811 48.7887C39.0969 48.6785 39.1161 48.5637 39.132 48.4474C38.9764 51.4639 38.4333 54.4502 37.5151 57.3375C38.0414 54.4899 38.6278 51.6484 39.0859 48.7916L39.0811 48.7887ZM37.496 63.0555C41.3398 52.9903 40.3888 42.4157 41.2859 31.9588C40.8104 38.4527 42.0468 44.9985 41.0768 51.477C37.3247 63.7097 37.9694 76.808 42.9061 88.6422C39.6661 80.6182 36.4847 71.7727 37.4944 63.0586L37.496 63.0555ZM36.526 73.1695C38.5359 81.143 40.1401 90.1325 46.5962 95.976C45.5976 95.9133 44.6309 95.6115 43.7835 95.0978C42.9362 94.584 42.2347 93.8747 41.7426 93.0336C38.7246 86.904 37.5991 79.8364 36.5244 73.1727L36.526 73.1695Z" fill="#3A4135"/>
</svg>
