<svg width="92" height="127" viewBox="0 0 92 127" fill="none" xmlns="http://www.w3.org/2000/svg">
<g clip-path="url(#clip0_2014_130)">
<path d="M10.5821 63.7866C14.9888 77.0023 19.3525 99.2677 29.1422 108.731C28.3237 114.511 27.3934 120.272 26.3833 126.018C27.0372 126.213 27.6902 126.414 28.3422 126.621C29.364 120.823 30.3036 115.01 31.1609 109.181C47.589 101.757 55.4858 81.689 63.309 66.2275C65.2372 64.4883 69.2868 65.7273 70.0531 62.241C77.8411 62.9023 90.2196 61.5317 91.665 52.0191C91.8183 47.2179 87.0544 44.557 82.844 44.416C88.7803 36.0526 78.5155 22.8524 70.4287 31.7672C67.1593 16.315 47.8082 32.314 59.8388 57.0124C56.2399 58.8941 57.7251 65.111 60.8948 66.5622C53.6756 81.3251 45.9934 98.6683 31.4291 107.092C35.0096 83.9224 32.0575 60.4738 26.6346 37.843C25.0866 34.7733 27.3612 32.2844 26.8063 29.1869C38.0721 29.794 51.1649 19.1059 36.4979 11.8746C39.1404 1.29182 26.0921 -2.97047 20.9221 6.10074C20.0883 0.701693 13.8331 -1.13821 10.5913 3.3641C6.23673 11.0956 13.2614 20.0908 16.2625 27.2044C11.7455 32.3758 18.8789 37.7856 24.0795 35.9085C29.7691 58.9544 32.9343 82.8661 29.4151 106.496C24.5808 101.98 9.68998 63.4025 13.5311 58.6695C19.8154 62.6963 24.8536 49.9081 16.9737 50.5121C19.5625 45.9819 17.3661 38.5865 11.3025 40.2127C10.2387 36.031 3.92377 33.6057 1.41158 37.8292C-0.30648 43.4165 0.00443066 49.4397 2.28835 54.8161C-3.93005 60.466 4.76071 70.7081 10.5821 63.7866ZM89.5192 50.8265C89.6479 59.8838 76.7696 60.6272 70.0945 60.1687C69.8891 59.3729 69.483 58.6445 68.9158 58.0547C74.016 55.2749 78.385 51.304 81.6591 46.4728C84.6771 46.3474 88.7129 47.4254 89.513 50.8265H89.5192ZM71.1797 34.0408C78.3745 25.0579 86.1716 37.332 80.4651 44.4858C77.0039 44.9195 73.7102 46.2413 70.8976 48.3252C71.9368 43.6727 70.3275 38.3991 71.1736 34.0408H71.1797ZM71.5767 50.3695C73.7491 48.704 76.2348 47.5035 78.8818 46.8415C76.1444 50.3891 72.7702 53.3839 68.9357 55.6695C69.9642 53.9147 69.6699 51.4227 71.5706 50.3695H71.5767ZM64.1965 55.8663C63.6519 55.8293 63.105 55.8478 62.5641 55.9219C64.0119 49.5736 66.1589 43.4093 68.9648 37.5441C69.9473 44.5833 69.04 50.6562 64.1903 55.8663H64.1965ZM58.9145 47.4176C53.9928 35.413 66.9646 18.3655 68.6414 34.0283C65.118 40.2789 62.5136 47.0145 60.9102 54.0231C60.13 51.8595 59.4617 49.6246 58.91 47.4176H58.9145ZM15.6908 21.5313C5.20675 3.79308 17.2803 -3.33434 19.4231 8.5572C17.7263 12.6986 15.6954 16.8989 15.6846 21.5313H15.6908ZM19.2913 21.7109C19.0255 22.7912 18.7006 23.856 18.318 24.8999C16.8864 20.8328 18.4712 16.3073 20.0116 12.4384C20.2741 15.549 20.0291 18.6822 19.2866 21.7126L19.2913 21.7109ZM24.7233 4.89114C29.5086 0.153416 36.4842 5.4657 34.5039 11.475C29.6282 11.063 25.3579 14.2287 22.0486 17.54C22.697 12.9881 20.1051 7.94688 24.7187 4.89114H24.7233ZM21.2195 24.1998C21.1229 18.6242 28.6548 13.8105 33.788 13.4992C31.259 18.5312 26.2132 21.9665 21.2133 24.1998H21.2195ZM23.7362 25.2839C28.71 22.7424 33.5612 19.0749 35.8756 13.8339C42.0925 15.3718 42.0971 23.1947 36.2527 25.2484C33.0646 26.7584 29.4151 26.6902 25.9511 27.2509C25.3978 26.4078 24.6308 25.7302 23.7301 25.2886L23.7362 25.2839ZM18.462 52.5889C18.8408 53.1986 18.9928 53.9245 18.891 54.637C18.7891 55.3495 18.4399 56.0022 17.9058 56.4786C17.3716 56.9551 16.6874 57.2243 15.975 57.2381C15.2627 57.2519 14.5687 57.0093 14.017 56.5539C13.8666 56.4249 13.6829 56.3418 13.4875 56.3144C13.2921 56.2869 13.093 56.3163 12.9134 56.3991C12.7684 56.1539 12.591 55.9298 12.3862 55.733C14.4937 54.4568 15.6248 51.9478 18.4558 52.5937L18.462 52.5889ZM11.8297 42.1936C16.7146 40.9143 16.7346 47.6143 14.742 50.3928C13.3181 51.8827 10.7169 52.1848 9.35126 53.9891C7.93652 54.4444 6.26886 54.511 5.21279 55.7082C5.1101 55.5688 5.0136 55.4171 4.91857 55.2715C11.3975 53.2054 13.01 48.7387 11.8237 42.1982L11.8297 42.1936ZM9.89545 43.0949C12.3203 53.3029 1.36716 54.858 5.84895 47.2767C6.95029 45.6619 8.31674 44.2491 9.88928 43.0996L9.89545 43.0949ZM5.27108 37.6897C6.21112 37.7131 7.11864 38.0422 7.85892 38.6282C8.59919 39.2141 9.13279 40.0254 9.38045 40.9421C6.32652 42.8276 3.98843 45.6958 2.74199 49.0856C2.82322 45.6566 0.855213 38.7149 5.26649 37.6989L5.27108 37.6897Z" fill="#3A4135"/>
</g>
<defs>
<clipPath id="clip0_2014_130">
<rect width="91.9655" height="127" fill="white"/>
</clipPath>
</defs>
</svg>
