<svg width="92" height="127" viewBox="0 0 92 127" fill="none" xmlns="http://www.w3.org/2000/svg">
<g clip-path="url(#clip0_2014_123)">
<path d="M17.4128 73.4122C29.3497 89.3802 43.8011 103.312 60.205 114.666C61.562 118.208 63.0232 121.704 64.5366 125.188C65.1826 125.343 65.8283 125.5 66.4733 125.658C64.9737 122.235 63.514 118.797 62.1417 115.324C70.0261 110.256 74.8238 75.5512 76.1225 65.2367C89.0439 68.9748 87.4095 50.0657 77.5624 50.6884C68.4805 48.3932 66.5853 62.025 74.5847 64.6874C72.5423 81.179 69.9141 99.0311 62.3425 113.732C54.751 100.483 52.8481 81.9212 51.6674 66.1962C61.9775 58.8822 66.4057 45.1494 73.7197 35.0277C81.1043 40.2714 87.4922 27.3632 81.8465 22.4714C73.933 17.4802 64.4952 27.2638 72.4486 34.0805C65.6836 43.9329 60.6128 56.6513 51.6229 64.6095C51.154 49.5987 52.9934 34.6049 57.0769 20.1503C73.0696 22.0323 71.6283 3.64169 58.0415 0C48.0334 0.367229 46.5062 16.1536 55.5743 19.6239C51.6901 33.4757 49.8123 47.8106 49.9976 62.1933C45.5941 53.2939 42.5789 43.7755 41.0567 33.9673C48.1974 31.5864 46.9079 22.1103 40.3759 19.8901C32.329 18.8618 28.9327 34.3115 39.505 34.2732C41.1528 45.247 44.7348 55.8429 50.085 65.5703C50.6079 81.4525 53.6926 97.1467 59.2206 112.049C43.7353 101.025 30.0574 87.6706 18.6747 72.462C21.8395 69.7078 21.9882 63.7954 19.6591 60.8667C14.4703 59.9686 6.336 60.7886 6.14433 67.5166C5.9588 73.2622 12.7729 76.5765 17.4128 73.4122Z" fill="#3A4135"/>
</g>
<defs>
<clipPath id="clip0_2014_123">
<rect width="92" height="127" fill="white"/>
</clipPath>
</defs>
</svg>
